<?xml version="1.0" encoding="utf-8"?>
<!-- Generator: Adobe Illustrator 19.2.0, SVG Export Plug-In . SVG Version: 6.00 Build 0)  -->
<svg version="1.1" id="Layer_1" xmlns="http://www.w3.org/2000/svg" xmlns:xlink="http://www.w3.org/1999/xlink" x="0px" y="0px"
	 viewBox="0 0 252 72" style="enable-background:new 0 0 252 72;" xml:space="preserve">
<style type="text/css">
	.st0{fill:#00648C;}
	.st1{fill:#FFFFFF;}
</style>
<g>
	<rect x="81.4" y="16.1" class="st0" width="3.4" height="10.3"/>
	<path class="st0" d="M96.1,17c-0.7-0.8-1.7-1.2-2.9-1.2c-0.4,0-0.8,0.1-1.2,0.2c-0.4,0.1-0.7,0.3-0.9,0.5c-0.2,0.2-0.4,0.4-0.6,0.5
		c-0.1,0.2-0.3,0.3-0.4,0.6v-1.5h-3.4l0,0.5c0,0.3,0,1.4,0,3.1s0,4,0,6.7h3.4v-5.8c0-0.4,0-0.6,0.1-0.8c0.1-0.4,0.4-0.7,0.7-0.9
		c0.3-0.2,0.7-0.4,1.1-0.4c0.6,0,1,0.2,1.3,0.6c0.3,0.4,0.4,1,0.4,1.7v5.5h3.4v-5.9C97.2,19,96.8,17.8,96.1,17z"/>
	<path class="st0" d="M83.1,11.1c-0.6,0-1,0.2-1.4,0.5s-0.5,0.8-0.5,1.3c0,0.5,0.2,0.9,0.5,1.3c0.3,0.3,0.8,0.5,1.4,0.5h0
		c0.6,0,1.1-0.2,1.4-0.5s0.5-0.8,0.5-1.3c0-0.5-0.2-0.9-0.5-1.3C84.2,11.3,83.7,11.1,83.1,11.1z"/>
</g>
<path class="st0" d="M19.4,14.9v-1.6c0-0.2,0-0.4,0-0.5c0-0.1,0.1-0.3,0.1-0.4c0.1-0.1,0.2-0.2,0.4-0.3c0.2,0,0.4-0.1,0.7-0.1h1.6V9
	h-2.5c-1.4,0-2.5,0.3-3.1,1c-0.6,0.7-0.9,1.7-0.9,3v1.9h-1.9V18h1.9v9h3.7v-9h2.5l0.3-3.1H19.4z"/>
<path class="st0" d="M63,12.4c-0.7,0.3-1.4,0.5-2.1,0.6c0.8-0.5,1.3-1.2,1.6-2c-0.7,0.4-1.5,0.7-2.3,0.9c-0.7-0.8-1.6-1.2-2.7-1.2
	c-1,0-1.9,0.4-2.6,1.1c-0.7,0.7-1.1,1.6-1.1,2.6c0,0.3,0,0.6,0.1,0.8c-1.5-0.1-2.9-0.5-4.2-1.1c-1.3-0.7-2.4-1.6-3.4-2.7
	c-0.3,0.6-0.5,1.2-0.5,1.9c0,0.6,0.1,1.2,0.4,1.8c0.3,0.5,0.7,1,1.2,1.3c-0.6,0-1.1-0.2-1.7-0.5v0c0,0.9,0.3,1.7,0.8,2.3
	s1.3,1.1,2.1,1.3c-0.3,0.1-0.6,0.1-1,0.1c-0.2,0-0.4,0-0.7-0.1c0.2,0.7,0.7,1.3,1.3,1.8c0.6,0.5,1.3,0.7,2.1,0.7
	c-1.3,1.1-2.9,1.6-4.6,1.6c-0.3,0-0.6,0-0.9,0c1.7,1.1,3.6,1.7,5.7,1.7c1.3,0,2.5-0.2,3.7-0.6c1.2-0.4,2.1-1,2.9-1.7
	c0.8-0.7,1.5-1.5,2.1-2.4c0.6-0.9,1-1.9,1.3-2.8s0.4-2,0.4-3c0-0.2,0-0.4,0-0.5C61.9,13.8,62.5,13.2,63,12.4z"/>
<g>
	<path class="st0" d="M133.5,14.6c0.2-0.6,0.3-1.2,0.3-1.8c0-0.8-0.2-1.6-0.6-2.4c-0.8,0-1.5,0.1-2,0.4c-0.6,0.3-1.3,0.7-2,1.3
		c-1-0.2-2-0.3-3-0.3c-1.2,0-2.3,0.1-3.3,0.4c-0.8-0.6-1.5-1.1-2-1.3s-1.3-0.4-2.1-0.4c-0.4,0.7-0.6,1.5-0.6,2.4
		c0,0.6,0.1,1.2,0.3,1.8c-1,1.1-1.5,2.6-1.5,4.3c0,1.5,0.2,2.7,0.7,3.6c0.2,0.5,0.5,0.9,0.9,1.2c0.4,0.4,0.8,0.7,1.3,0.9
		c0.5,0.2,1,0.4,1.5,0.6c0.5,0.1,1,0.3,1.6,0.3c0.6,0.1,1.1,0.1,1.6,0.1c0.5,0,1,0,1.5,0c0.7,0,1.3,0,1.8,0c0.5,0,1.2-0.1,1.9-0.2
		c0.7-0.1,1.3-0.3,1.8-0.5c0.5-0.2,1-0.5,1.5-0.9c0.5-0.4,0.9-0.9,1.1-1.4c0.4-0.9,0.7-2.1,0.7-3.6C135,17.1,134.5,15.7,133.5,14.6z
		 M132.2,22.4c-0.2,0.5-0.5,0.8-0.9,1.1c-0.4,0.3-0.8,0.5-1.3,0.6c-0.5,0.2-1,0.3-1.5,0.3c-0.5,0.1-1,0.1-1.6,0.1h-1.8
		c-0.6,0-1.1,0-1.6-0.1c-0.5,0-1-0.2-1.5-0.3c-0.5-0.2-1-0.4-1.3-0.6c-0.4-0.3-0.6-0.6-0.9-1.1c-0.2-0.5-0.3-1-0.3-1.7
		c0-0.9,0.2-1.6,0.7-2.2c0.5-0.6,1.2-0.9,2-0.9c0.3,0,1,0.1,2.1,0.2c0.5,0.1,1.1,0.1,1.7,0.1s1.2,0,1.7-0.1c1.1-0.2,1.8-0.2,2.1-0.2
		c0.9,0,1.5,0.3,2,0.9c0.5,0.6,0.7,1.3,0.7,2.2C132.6,21.4,132.5,22,132.2,22.4z"/>
	<path class="st0" d="M123.3,19.1c-0.2-0.2-0.5-0.4-0.8-0.4c-0.3,0-0.6,0.1-0.8,0.4c-0.2,0.2-0.4,0.5-0.5,0.8
		c-0.1,0.3-0.1,0.6-0.1,0.9c0,0.3,0,0.6,0.1,0.9c0.1,0.3,0.2,0.6,0.5,0.8c0.2,0.2,0.5,0.4,0.8,0.4c0.3,0,0.6-0.1,0.8-0.4
		c0.2-0.2,0.4-0.5,0.5-0.8c0.1-0.3,0.1-0.6,0.1-0.9c0-0.3,0-0.6-0.1-0.9C123.7,19.6,123.5,19.3,123.3,19.1z"/>
	<path class="st0" d="M130.2,19.1c-0.2-0.2-0.5-0.4-0.8-0.4c-0.3,0-0.6,0.1-0.8,0.4c-0.2,0.2-0.4,0.5-0.5,0.8
		c-0.1,0.3-0.1,0.6-0.1,0.9c0,0.3,0,0.6,0.1,0.9s0.2,0.6,0.5,0.8c0.2,0.2,0.5,0.4,0.8,0.4c0.3,0,0.6-0.1,0.8-0.4
		c0.2-0.2,0.4-0.5,0.5-0.8c0.1-0.3,0.1-0.6,0.1-0.9c0-0.3,0-0.6-0.1-0.9C130.6,19.6,130.5,19.3,130.2,19.1z"/>
</g>
<g>
	<rect x="81.4" y="52.1" class="st1" width="3.4" height="10.3"/>
	<path class="st1" d="M96.1,53c-0.7-0.8-1.7-1.2-2.9-1.2c-0.4,0-0.8,0.1-1.2,0.2c-0.4,0.1-0.7,0.3-0.9,0.5c-0.2,0.2-0.4,0.4-0.6,0.5
		c-0.1,0.2-0.3,0.3-0.4,0.6v-1.5h-3.4l0,0.5c0,0.3,0,1.4,0,3.1s0,4,0,6.7h3.4v-5.8c0-0.4,0-0.6,0.1-0.8c0.1-0.4,0.4-0.7,0.7-0.9
		c0.3-0.2,0.7-0.4,1.1-0.4c0.6,0,1,0.2,1.3,0.6c0.3,0.4,0.4,1,0.4,1.7v5.5h3.4v-5.9C97.2,55,96.8,53.8,96.1,53z"/>
	<path class="st1" d="M83.1,47.1c-0.6,0-1,0.2-1.4,0.5c-0.4,0.3-0.5,0.8-0.5,1.3c0,0.5,0.2,0.9,0.5,1.3c0.3,0.3,0.8,0.5,1.4,0.5h0
		c0.6,0,1.1-0.2,1.4-0.5c0.4-0.3,0.5-0.8,0.5-1.3c0-0.5-0.2-0.9-0.5-1.3C84.2,47.3,83.7,47.1,83.1,47.1z"/>
</g>
<path class="st1" d="M19.4,50.9v-1.6c0-0.2,0-0.4,0-0.5c0-0.1,0.1-0.3,0.1-0.4c0.1-0.1,0.2-0.2,0.4-0.3c0.2,0,0.4-0.1,0.7-0.1h1.6
	V45h-2.5c-1.4,0-2.5,0.3-3.1,1c-0.6,0.7-0.9,1.7-0.9,3v1.9h-1.9V54h1.9v9h3.7v-9h2.5l0.3-3.1H19.4z"/>
<path class="st1" d="M63,48.4c-0.7,0.3-1.4,0.5-2.1,0.6c0.8-0.5,1.3-1.2,1.6-2c-0.7,0.4-1.5,0.7-2.3,0.9c-0.7-0.8-1.6-1.2-2.7-1.2
	c-1,0-1.9,0.4-2.6,1.1c-0.7,0.7-1.1,1.6-1.1,2.6c0,0.3,0,0.6,0.1,0.8c-1.5-0.1-2.9-0.5-4.2-1.1c-1.3-0.7-2.4-1.6-3.4-2.7
	c-0.3,0.6-0.5,1.2-0.5,1.9c0,0.6,0.1,1.2,0.4,1.8c0.3,0.5,0.7,1,1.2,1.3c-0.6,0-1.1-0.2-1.7-0.5v0c0,0.9,0.3,1.7,0.8,2.3
	c0.6,0.7,1.3,1.1,2.1,1.3c-0.3,0.1-0.6,0.1-1,0.1c-0.2,0-0.4,0-0.7-0.1c0.2,0.7,0.7,1.3,1.3,1.8c0.6,0.5,1.3,0.7,2.1,0.7
	c-1.3,1.1-2.9,1.6-4.6,1.6c-0.3,0-0.6,0-0.9,0c1.7,1.1,3.6,1.7,5.7,1.7c1.3,0,2.5-0.2,3.7-0.6c1.2-0.4,2.1-1,2.9-1.7
	c0.8-0.7,1.5-1.5,2.1-2.4c0.6-0.9,1-1.9,1.3-2.8c0.3-1,0.4-2,0.4-3c0-0.2,0-0.4,0-0.5C61.9,49.8,62.5,49.2,63,48.4z"/>
<g>
	<path class="st1" d="M133.5,50.6c0.2-0.6,0.3-1.2,0.3-1.8c0-0.8-0.2-1.6-0.6-2.4c-0.8,0-1.5,0.1-2,0.4c-0.6,0.3-1.3,0.7-2,1.3
		c-1-0.2-2-0.3-3-0.3c-1.2,0-2.3,0.1-3.3,0.4c-0.8-0.6-1.5-1.1-2-1.3c-0.6-0.3-1.3-0.4-2.1-0.4c-0.4,0.7-0.6,1.5-0.6,2.4
		c0,0.6,0.1,1.2,0.3,1.8c-1,1.1-1.5,2.6-1.5,4.3c0,1.5,0.2,2.7,0.7,3.6c0.2,0.5,0.5,0.9,0.9,1.2c0.4,0.4,0.8,0.7,1.3,0.9
		c0.5,0.2,1,0.4,1.5,0.6c0.5,0.1,1,0.3,1.6,0.3c0.6,0.1,1.1,0.1,1.6,0.1c0.5,0,1,0,1.5,0c0.7,0,1.3,0,1.8,0c0.5,0,1.2-0.1,1.9-0.2
		c0.7-0.1,1.3-0.3,1.8-0.5c0.5-0.2,1-0.5,1.5-0.9c0.5-0.4,0.9-0.9,1.1-1.4c0.4-0.9,0.7-2.1,0.7-3.6C135,53.1,134.5,51.7,133.5,50.6z
		 M132.2,58.4c-0.2,0.5-0.5,0.8-0.9,1.1c-0.4,0.3-0.8,0.5-1.3,0.6c-0.5,0.2-1,0.3-1.5,0.3c-0.5,0.1-1,0.1-1.6,0.1h-1.8
		c-0.6,0-1.1,0-1.6-0.1c-0.5,0-1-0.2-1.5-0.3s-1-0.4-1.3-0.6c-0.4-0.3-0.6-0.6-0.9-1.1s-0.3-1-0.3-1.7c0-0.9,0.2-1.6,0.7-2.2
		c0.5-0.6,1.2-0.9,2-0.9c0.3,0,1,0.1,2.1,0.2c0.5,0.1,1.1,0.1,1.7,0.1s1.2,0,1.7-0.1c1.1-0.2,1.8-0.2,2.1-0.2c0.9,0,1.5,0.3,2,0.9
		c0.5,0.6,0.7,1.3,0.7,2.2C132.6,57.4,132.5,58,132.2,58.4z"/>
	<path class="st1" d="M123.3,55.1c-0.2-0.2-0.5-0.4-0.8-0.4c-0.3,0-0.6,0.1-0.8,0.4c-0.2,0.2-0.4,0.5-0.5,0.8
		c-0.1,0.3-0.1,0.6-0.1,0.9s0,0.6,0.1,0.9c0.1,0.3,0.2,0.6,0.5,0.8c0.2,0.2,0.5,0.4,0.8,0.4c0.3,0,0.6-0.1,0.8-0.4
		c0.2-0.2,0.4-0.5,0.5-0.8c0.1-0.3,0.1-0.6,0.1-0.9s0-0.6-0.1-0.9C123.7,55.6,123.5,55.3,123.3,55.1z"/>
	<path class="st1" d="M130.2,55.1c-0.2-0.2-0.5-0.4-0.8-0.4c-0.3,0-0.6,0.1-0.8,0.4c-0.2,0.2-0.4,0.5-0.5,0.8
		c-0.1,0.3-0.1,0.6-0.1,0.9s0,0.6,0.1,0.9c0.1,0.3,0.2,0.6,0.5,0.8c0.2,0.2,0.5,0.4,0.8,0.4c0.3,0,0.6-0.1,0.8-0.4
		c0.2-0.2,0.4-0.5,0.5-0.8c0.1-0.3,0.1-0.6,0.1-0.9s0-0.6-0.1-0.9C130.6,55.6,130.5,55.3,130.2,55.1z"/>
</g>
</svg>
